<svg width="128" height="129" viewBox="0 0 128 129" fill="none" xmlns="http://www.w3.org/2000/svg">
<path fill-rule="evenodd" clip-rule="evenodd" d="M64.2852 21.7256C63.292 21.7256 62.3103 21.9369 61.4051 22.3455C60.4999 22.7541 59.6921 23.3507 59.0352 24.0955C58.9968 24.1391 58.9565 24.1809 58.9145 24.2209L23.3987 58.0454C23.4868 58.2709 23.5352 58.5163 23.5352 58.7729V106.023C23.5352 106.686 23.7986 107.322 24.2674 107.791C24.7362 108.26 25.3721 108.523 26.0352 108.523H46.5352V70.0229C46.5352 68.9184 47.4306 68.0229 48.5352 68.0229H80.0352C81.1397 68.0229 82.0352 68.9184 82.0352 70.0229V108.523H102.535C103.198 108.523 103.834 108.26 104.303 107.791C104.772 107.322 105.035 106.686 105.035 106.023V58.7729C105.035 58.5163 105.084 58.2709 105.172 58.0454L69.6558 24.2209C69.6138 24.1809 69.5736 24.1391 69.5352 24.0955C68.8783 23.3507 68.0704 22.7541 67.1652 22.3455C66.26 21.9369 65.2783 21.7256 64.2852 21.7256ZM109.035 61.725V106.023C109.035 107.747 108.35 109.4 107.131 110.619C105.912 111.838 104.259 112.523 102.535 112.523H80.0352C78.9306 112.523 78.0352 111.628 78.0352 110.523V72.0229H50.5352V110.523C50.5352 111.628 49.6397 112.523 48.5352 112.523H26.0352C24.3113 112.523 22.658 111.838 21.439 110.619C20.22 109.4 19.5352 107.747 19.5352 106.023V61.725L11.6645 69.2209C10.8646 69.9827 9.59866 69.9518 8.83688 69.152C8.07511 68.3521 8.10599 67.0861 8.90585 66.3244L56.0959 21.3814C57.1171 20.2428 58.3647 19.3293 59.7593 18.6998C61.1818 18.0577 62.7245 17.7256 64.2852 17.7256C65.8458 17.7256 67.3886 18.0577 68.811 18.6998C70.2056 19.3293 71.4532 20.2428 72.4744 21.3814L119.664 66.3244C120.464 67.0861 120.495 68.3521 119.733 69.152C118.972 69.9518 117.706 69.9827 116.906 69.2209L109.035 61.725Z" fill="#141414"/>
</svg>
