<svg width="128" height="129" viewBox="0 0 128 129" fill="none" xmlns="http://www.w3.org/2000/svg">
<path fill-rule="evenodd" clip-rule="evenodd" d="M64.2646 11.9775C34.9936 11.9775 11.2646 35.7064 11.2646 64.9775C11.2646 94.2486 34.9936 117.978 64.2646 117.978C93.5357 117.978 117.265 94.2486 117.265 64.9775C117.265 35.7064 93.5357 11.9775 64.2646 11.9775ZM7.26465 64.9775C7.26465 33.4973 32.7844 7.97754 64.2646 7.97754C95.7449 7.97754 121.265 33.4973 121.265 64.9775C121.265 96.4578 95.7449 121.978 64.2646 121.978C32.7844 121.978 7.26465 96.4578 7.26465 64.9775ZM64.4053 34.168C65.5098 34.168 66.4053 35.0634 66.4053 36.168V62.9775H93.2157C94.3203 62.9775 95.2157 63.873 95.2157 64.9775C95.2157 66.0821 94.3203 66.9775 93.2157 66.9775H66.4053V93.787C66.4053 94.8916 65.5098 95.787 64.4053 95.787C63.3007 95.787 62.4053 94.8916 62.4053 93.787V66.9775H35.5967C34.4921 66.9775 33.5967 66.0821 33.5967 64.9775C33.5967 63.873 34.4921 62.9775 35.5967 62.9775H62.4053V36.168C62.4053 35.0634 63.3007 34.168 64.4053 34.168Z" fill="white"/>
</svg>
