<svg width="128" height="129" viewBox="0 0 128 129" fill="none" xmlns="http://www.w3.org/2000/svg">
<path fill-rule="evenodd" clip-rule="evenodd" d="M48.0485 26.3226C48.41 25.7202 49.061 25.3516 49.7635 25.3516H76.9064C77.6089 25.3516 78.2599 25.7202 78.6214 26.3226L84.8245 36.6611H106.311C108.041 36.6611 109.701 37.3484 110.924 38.5719C112.148 39.7953 112.835 41.4547 112.835 43.1849V97.4706C112.835 99.2008 112.148 100.86 110.924 102.084C109.701 103.307 108.041 103.994 106.311 103.994H20.3588C18.6286 103.994 16.9692 103.307 15.7457 102.084C14.5223 100.86 13.835 99.2008 13.835 97.4706V43.1849C13.835 41.4547 14.5223 39.7953 15.7457 38.5719C16.9692 37.3484 18.6285 36.6611 20.3588 36.6611H41.8454L48.0485 26.3226ZM50.8959 29.3516L44.6928 39.6901C44.3314 40.2925 43.6803 40.6611 42.9778 40.6611H20.3588C19.6894 40.6611 19.0475 40.927 18.5742 41.4003C18.1009 41.8736 17.835 42.5155 17.835 43.1849V97.4706C17.835 98.14 18.1009 98.7819 18.5742 99.2552C19.0475 99.7285 19.6894 99.9944 20.3588 99.9944H106.311C106.981 99.9944 107.622 99.7285 108.096 99.2552C108.569 98.7819 108.835 98.14 108.835 97.4706V43.1849C108.835 42.5155 108.569 41.8736 108.096 41.4003C107.622 40.927 106.981 40.6611 106.311 40.6611H83.6921C82.9896 40.6611 82.3386 40.2925 81.9771 39.6901L75.774 29.3516H50.8959ZM22.8818 47.709C22.8818 46.6044 23.7773 45.709 24.8818 45.709H40.7152C41.8197 45.709 42.7152 46.6044 42.7152 47.709C42.7152 48.8136 41.8197 49.709 40.7152 49.709H24.8818C23.7773 49.709 22.8818 48.8136 22.8818 47.709ZM63.3366 49.709C53.1983 49.709 44.9795 57.9278 44.9795 68.0661C44.9795 78.2045 53.1983 86.4233 63.3366 86.4233C73.475 86.4233 81.6938 78.2045 81.6938 68.0661C81.6938 57.9278 73.475 49.709 63.3366 49.709ZM40.9795 68.0661C40.9795 55.7186 50.9891 45.709 63.3366 45.709C75.6841 45.709 85.6938 55.7186 85.6938 68.0661C85.6938 80.4136 75.6841 90.4233 63.3366 90.4233C50.9891 90.4233 40.9795 80.4136 40.9795 68.0661Z" fill="white"/>
</svg>
